<svg width="22" height="22" viewBox="0 0 22 22" fill="none" xmlns="http://www.w3.org/2000/svg">
<path d="M10.5937 17.6899L14.8187 9.64616H11.5687V4.33783L7.15416 12.3545H10.5937V17.6899ZM11 21.8337C9.51943 21.8337 8.12013 21.5493 6.80207 20.9805C5.48402 20.4118 4.33298 19.6354 3.34895 18.6514C2.36492 17.6673 1.58853 16.5163 1.01978 15.1982C0.451031 13.8802 0.166656 12.4809 0.166656 11.0003C0.166656 9.51977 0.451031 8.12046 1.01978 6.80241C1.58853 5.48435 2.36492 4.33331 3.34895 3.34928C4.33298 2.36526 5.48402 1.58887 6.80207 1.02012C8.12013 0.451367 9.51943 0.166992 11 0.166992C12.4805 0.166992 13.8798 0.451367 15.1979 1.02012C16.516 1.58887 17.667 2.36526 18.651 3.34928C19.6351 4.33331 20.4114 5.48435 20.9802 6.80241C21.5489 8.12046 21.8333 9.51977 21.8333 11.0003C21.8333 12.4809 21.5489 13.8802 20.9802 15.1982C20.4114 16.5163 19.6351 17.6673 18.651 18.6514C17.667 19.6354 16.516 20.4118 15.1979 20.9805C13.8798 21.5493 12.4805 21.8337 11 21.8337ZM11 20.2087C13.5278 20.2087 15.6944 19.3059 17.5 17.5003C19.3055 15.6948 20.2083 13.5281 20.2083 11.0003C20.2083 8.47255 19.3055 6.30588 17.5 4.50033C15.6944 2.69477 13.5278 1.79199 11 1.79199C8.47221 1.79199 6.30554 2.69477 4.49999 4.50033C2.69443 6.30588 1.79166 8.47255 1.79166 11.0003C1.79166 13.5281 2.69443 15.6948 4.49999 17.5003C6.30554 19.3059 8.47221 20.2087 11 20.2087Z" fill="white"/>
</svg>
