<svg width="153" height="32" viewBox="0 0 153 32" fill="none" xmlns="http://www.w3.org/2000/svg">
<path d="M1.092 11.504H4.08C4.624 11.504 5.072 11.58 5.424 11.732C5.776 11.876 6.052 12.064 6.252 12.296C6.46 12.52 6.604 12.776 6.684 13.064C6.764 13.344 6.804 13.616 6.804 13.88C6.804 14.144 6.764 14.42 6.684 14.708C6.604 14.988 6.46 15.244 6.252 15.476C6.052 15.7 5.776 15.888 5.424 16.04C5.072 16.184 4.624 16.256 4.08 16.256H2.244V20H1.092V11.504ZM2.244 15.248H3.756C3.98 15.248 4.2 15.232 4.416 15.2C4.64 15.16 4.836 15.092 5.004 14.996C5.18 14.9 5.32 14.764 5.424 14.588C5.528 14.404 5.58 14.168 5.58 13.88C5.58 13.592 5.528 13.36 5.424 13.184C5.32 13 5.18 12.86 5.004 12.764C4.836 12.668 4.64 12.604 4.416 12.572C4.2 12.532 3.98 12.512 3.756 12.512H2.244V15.248ZM8.80528 17.156C8.80528 17.444 8.84928 17.712 8.93728 17.96C9.02528 18.2 9.14928 18.408 9.30928 18.584C9.46928 18.752 9.66528 18.888 9.89728 18.992C10.1293 19.088 10.3893 19.136 10.6773 19.136C10.9653 19.136 11.2253 19.088 11.4573 18.992C11.6893 18.888 11.8853 18.752 12.0453 18.584C12.2053 18.408 12.3293 18.2 12.4173 17.96C12.5053 17.712 12.5493 17.444 12.5493 17.156C12.5493 16.868 12.5053 16.604 12.4173 16.364C12.3293 16.116 12.2053 15.908 12.0453 15.74C11.8853 15.564 11.6893 15.428 11.4573 15.332C11.2253 15.228 10.9653 15.176 10.6773 15.176C10.3893 15.176 10.1293 15.228 9.89728 15.332C9.66528 15.428 9.46928 15.564 9.30928 15.74C9.14928 15.908 9.02528 16.116 8.93728 16.364C8.84928 16.604 8.80528 16.868 8.80528 17.156ZM7.65328 17.156C7.65328 16.74 7.72928 16.352 7.88128 15.992C8.04128 15.632 8.25728 15.316 8.52928 15.044C8.80128 14.772 9.12128 14.56 9.48928 14.408C9.85728 14.248 10.2533 14.168 10.6773 14.168C11.1013 14.168 11.4973 14.248 11.8653 14.408C12.2333 14.56 12.5533 14.772 12.8253 15.044C13.0973 15.316 13.3093 15.632 13.4613 15.992C13.6213 16.352 13.7013 16.74 13.7013 17.156C13.7013 17.572 13.6213 17.964 13.4613 18.332C13.3093 18.692 13.0973 19.008 12.8253 19.28C12.5533 19.544 12.2333 19.756 11.8653 19.916C11.4973 20.068 11.1013 20.144 10.6773 20.144C10.2533 20.144 9.85728 20.068 9.48928 19.916C9.12128 19.756 8.80128 19.544 8.52928 19.28C8.25728 19.008 8.04128 18.692 7.88128 18.332C7.72928 17.964 7.65328 17.572 7.65328 17.156ZM14.3703 14.312H15.5823L16.8663 18.56H16.8903L18.2463 14.312H19.3863L20.8263 18.56H20.8503L22.0743 14.312H23.2143L21.3783 20H20.2863L18.7863 15.752H18.7623L17.4063 20H16.2423L14.3703 14.312ZM24.9758 17.552C24.9758 17.8 25.0278 18.028 25.1318 18.236C25.2438 18.436 25.3878 18.608 25.5638 18.752C25.7398 18.896 25.9438 19.008 26.1758 19.088C26.4078 19.168 26.6478 19.208 26.8958 19.208C27.2318 19.208 27.5238 19.132 27.7718 18.98C28.0198 18.82 28.2478 18.612 28.4558 18.356L29.2718 18.98C28.6718 19.756 27.8318 20.144 26.7518 20.144C26.3038 20.144 25.8958 20.068 25.5278 19.916C25.1678 19.764 24.8598 19.556 24.6038 19.292C24.3558 19.02 24.1638 18.704 24.0278 18.344C23.8918 17.976 23.8238 17.58 23.8238 17.156C23.8238 16.732 23.8958 16.34 24.0398 15.98C24.1918 15.612 24.3958 15.296 24.6518 15.032C24.9158 14.76 25.2278 14.548 25.5878 14.396C25.9478 14.244 26.3398 14.168 26.7638 14.168C27.2678 14.168 27.6918 14.256 28.0358 14.432C28.3878 14.608 28.6758 14.84 28.8998 15.128C29.1238 15.408 29.2838 15.728 29.3798 16.088C29.4838 16.44 29.5358 16.8 29.5358 17.168V17.552H24.9758ZM28.3838 16.688C28.3758 16.448 28.3358 16.228 28.2638 16.028C28.1998 15.828 28.0998 15.656 27.9638 15.512C27.8278 15.36 27.6558 15.244 27.4478 15.164C27.2478 15.076 27.0118 15.032 26.7398 15.032C26.4758 15.032 26.2318 15.084 26.0078 15.188C25.7918 15.284 25.6078 15.412 25.4558 15.572C25.3038 15.732 25.1838 15.912 25.0958 16.112C25.0158 16.304 24.9758 16.496 24.9758 16.688H28.3838ZM30.8277 14.312H31.9077V15.188H31.9317C32.0037 15.036 32.0997 14.9 32.2197 14.78C32.3397 14.652 32.4717 14.544 32.6157 14.456C32.7677 14.368 32.9317 14.3 33.1077 14.252C33.2837 14.196 33.4597 14.168 33.6357 14.168C33.8117 14.168 33.9717 14.192 34.1157 14.24L34.0677 15.404C33.9797 15.38 33.8917 15.36 33.8037 15.344C33.7157 15.328 33.6277 15.32 33.5397 15.32C33.0117 15.32 32.6077 15.468 32.3277 15.764C32.0477 16.06 31.9077 16.52 31.9077 17.144V20H30.8277V14.312ZM35.8742 17.552C35.8742 17.8 35.9262 18.028 36.0302 18.236C36.1422 18.436 36.2862 18.608 36.4622 18.752C36.6382 18.896 36.8422 19.008 37.0742 19.088C37.3062 19.168 37.5462 19.208 37.7942 19.208C38.1302 19.208 38.4222 19.132 38.6702 18.98C38.9182 18.82 39.1462 18.612 39.3542 18.356L40.1702 18.98C39.5702 19.756 38.7302 20.144 37.6502 20.144C37.2022 20.144 36.7942 20.068 36.4262 19.916C36.0662 19.764 35.7582 19.556 35.5022 19.292C35.2542 19.02 35.0622 18.704 34.9262 18.344C34.7902 17.976 34.7222 17.58 34.7222 17.156C34.7222 16.732 34.7942 16.34 34.9382 15.98C35.0902 15.612 35.2942 15.296 35.5502 15.032C35.8142 14.76 36.1262 14.548 36.4862 14.396C36.8462 14.244 37.2382 14.168 37.6622 14.168C38.1662 14.168 38.5902 14.256 38.9342 14.432C39.2862 14.608 39.5742 14.84 39.7982 15.128C40.0222 15.408 40.1822 15.728 40.2782 16.088C40.3822 16.44 40.4342 16.8 40.4342 17.168V17.552H35.8742ZM39.2822 16.688C39.2742 16.448 39.2342 16.228 39.1622 16.028C39.0982 15.828 38.9982 15.656 38.8622 15.512C38.7262 15.36 38.5542 15.244 38.3462 15.164C38.1462 15.076 37.9102 15.032 37.6382 15.032C37.3742 15.032 37.1302 15.084 36.9062 15.188C36.6902 15.284 36.5062 15.412 36.3542 15.572C36.2022 15.732 36.0822 15.912 35.9942 16.112C35.9142 16.304 35.8742 16.496 35.8742 16.688H39.2822ZM47.4262 20H46.3462V19.184H46.3222C46.1142 19.488 45.8262 19.724 45.4582 19.892C45.0982 20.06 44.7262 20.144 44.3422 20.144C43.9022 20.144 43.5022 20.068 43.1422 19.916C42.7902 19.764 42.4862 19.552 42.2302 19.28C41.9822 19.008 41.7902 18.692 41.6542 18.332C41.5182 17.972 41.4502 17.58 41.4502 17.156C41.4502 16.732 41.5182 16.34 41.6542 15.98C41.7902 15.612 41.9822 15.296 42.2302 15.032C42.4862 14.76 42.7902 14.548 43.1422 14.396C43.5022 14.244 43.9022 14.168 44.3422 14.168C44.7502 14.168 45.1342 14.256 45.4942 14.432C45.8542 14.6 46.1302 14.832 46.3222 15.128H46.3462V10.928H47.4262V20ZM44.4742 19.136C44.7622 19.136 45.0222 19.088 45.2542 18.992C45.4862 18.888 45.6822 18.752 45.8422 18.584C46.0022 18.408 46.1262 18.2 46.2142 17.96C46.3022 17.712 46.3462 17.444 46.3462 17.156C46.3462 16.868 46.3022 16.604 46.2142 16.364C46.1262 16.116 46.0022 15.908 45.8422 15.74C45.6822 15.564 45.4862 15.428 45.2542 15.332C45.0222 15.228 44.7622 15.176 44.4742 15.176C44.1862 15.176 43.9262 15.228 43.6942 15.332C43.4622 15.428 43.2662 15.564 43.1062 15.74C42.9462 15.908 42.8222 16.116 42.7342 16.364C42.6462 16.604 42.6022 16.868 42.6022 17.156C42.6022 17.444 42.6462 17.712 42.7342 17.96C42.8222 18.2 42.9462 18.408 43.1062 18.584C43.2662 18.752 43.4622 18.888 43.6942 18.992C43.9262 19.088 44.1862 19.136 44.4742 19.136ZM52.4019 10.928H53.4819V15.128H53.5059C53.6979 14.832 53.9739 14.6 54.3339 14.432C54.6939 14.256 55.0779 14.168 55.4859 14.168C55.9259 14.168 56.3219 14.244 56.6739 14.396C57.0339 14.548 57.3379 14.76 57.5859 15.032C57.8419 15.296 58.0379 15.612 58.1739 15.98C58.3099 16.34 58.3779 16.732 58.3779 17.156C58.3779 17.58 58.3099 17.972 58.1739 18.332C58.0379 18.692 57.8419 19.008 57.5859 19.28C57.3379 19.552 57.0339 19.764 56.6739 19.916C56.3219 20.068 55.9259 20.144 55.4859 20.144C55.1019 20.144 54.7259 20.06 54.3579 19.892C53.9979 19.724 53.7139 19.488 53.5059 19.184H53.4819V20H52.4019V10.928ZM55.3539 19.136C55.6419 19.136 55.9019 19.088 56.1339 18.992C56.3659 18.888 56.5619 18.752 56.7219 18.584C56.8819 18.408 57.0059 18.2 57.0939 17.96C57.1819 17.712 57.2259 17.444 57.2259 17.156C57.2259 16.868 57.1819 16.604 57.0939 16.364C57.0059 16.116 56.8819 15.908 56.7219 15.74C56.5619 15.564 56.3659 15.428 56.1339 15.332C55.9019 15.228 55.6419 15.176 55.3539 15.176C55.0659 15.176 54.8059 15.228 54.5739 15.332C54.3419 15.428 54.1459 15.564 53.9859 15.74C53.8259 15.908 53.7019 16.116 53.6139 16.364C53.5259 16.604 53.4819 16.868 53.4819 17.156C53.4819 17.444 53.5259 17.712 53.6139 17.96C53.7019 18.2 53.8259 18.408 53.9859 18.584C54.1459 18.752 54.3419 18.888 54.5739 18.992C54.8059 19.088 55.0659 19.136 55.3539 19.136ZM59.0539 14.312H60.3019L61.9939 18.752H62.0179L63.6259 14.312H64.7899L62.0899 21.224C61.9939 21.472 61.8939 21.696 61.7899 21.896C61.6859 22.104 61.5619 22.28 61.4179 22.424C61.2739 22.568 61.0979 22.68 60.8899 22.76C60.6899 22.84 60.4419 22.88 60.1459 22.88C59.9859 22.88 59.8219 22.868 59.6539 22.844C59.4939 22.828 59.3379 22.788 59.1859 22.724L59.3179 21.74C59.5339 21.828 59.7499 21.872 59.9659 21.872C60.1339 21.872 60.2739 21.848 60.3859 21.8C60.5059 21.76 60.6059 21.696 60.6859 21.608C60.7739 21.528 60.8459 21.432 60.9019 21.32C60.9579 21.208 61.0139 21.08 61.0699 20.936L61.4179 20.036L59.0539 14.312Z" fill="white"/>
<path d="M84.0001 27.9984C77.5643 28.1067 71.8632 22.6737 72.0025 15.7285C72.1331 9.462 77.3282 3.80168 84.3931 4.00533C90.63 4.18463 96.0335 9.26105 95.9998 16.1108C95.9665 22.8936 90.3608 28.0864 84.0001 27.9984ZM93.2242 17.5864C93.4304 16.5098 93.4274 15.4035 93.2154 14.328C92.5829 11.1961 90.812 8.92073 87.9431 7.51816C86.4603 6.79422 84.7462 7.075 83.5232 8.19475C82.6086 9.03304 82.1162 10.1034 81.8523 11.2935C81.7989 11.5344 81.7685 11.7807 81.7171 12.0655C83.3507 11.8084 84.8923 11.8077 86.4245 12.1859C86.5239 11.9322 86.4536 11.8429 86.204 11.8206C85.5952 11.7671 85.1277 11.462 84.7766 10.9654C84.3178 10.2976 84.3047 9.41955 84.7433 8.73835C85.182 8.05714 85.9867 7.70598 86.7844 7.84766C87.6638 8.00463 88.2272 8.54049 88.6108 9.30164C89.1736 10.42 89.1864 11.6257 89.1303 12.8355C89.1181 13.1061 89.1939 13.2658 89.43 13.4072C90.5367 14.067 91.4943 14.9496 92.242 15.9992C92.5944 16.4917 92.8806 17.0262 93.2242 17.5864ZM86.0964 20.0221C86.3575 20.1987 86.3575 20.1987 86.5598 19.9477C87.0157 19.3775 87.7445 19.0988 88.4645 19.2192C89.1845 19.3396 89.7829 19.8403 90.0287 20.5278C90.2744 21.2153 90.1289 21.9819 89.6485 22.5316C89.02 23.2522 88.2022 23.4484 87.2931 23.3394C86.1586 23.2041 85.1656 22.7028 84.2307 22.0817C83.9737 21.9105 83.7931 21.8679 83.4866 22.0323C82.1006 22.7826 80.6178 23.2021 79.0288 23.194C78.7197 23.194 78.4105 23.194 78.0716 23.194C78.0937 23.2319 78.1196 23.2675 78.1488 23.3002C79.3664 24.2758 80.7389 24.9396 82.2711 25.2088C84.6986 25.6387 86.9648 25.1969 89.0694 23.8834C90.1991 23.1764 90.9364 22.2001 91.071 20.874C91.2868 18.7475 90.1402 17.2813 88.5614 15.9883C87.983 17.5107 87.2105 18.8577 86.0964 20.0248V20.0221ZM79.1966 15.9457C79.2453 16.0729 79.2825 16.1663 79.317 16.2597C79.6958 17.2894 79.1952 18.4673 78.2164 18.8483C77.1239 19.2738 75.9679 18.7772 75.5559 17.69C75.15 16.6196 75.5437 15.7279 76.227 14.9214C76.9102 14.1149 77.7747 13.5878 78.6994 13.1338C78.9409 13.0147 79.0376 12.8794 79.0444 12.598C79.1019 10.7475 79.5943 9.02763 80.6496 7.48704C80.6897 7.41287 80.7241 7.33574 80.7524 7.25633C80.6435 7.28542 80.5901 7.29489 80.5407 7.31451C76.9115 8.73602 74.5318 12.4045 74.6488 16.305C74.6955 17.8659 75.2705 19.0979 76.6064 19.9322C77.6326 20.5722 78.7711 20.6676 79.9285 20.4829C80.5292 20.3875 81.1103 20.1744 81.7644 19.9971C80.6943 18.6927 79.9332 17.3388 79.48 15.7915L79.1966 15.9457ZM81.9504 14.7908C82.2988 16.1427 82.9944 17.38 83.9683 18.3801C84.983 17.4207 85.6127 16.2827 86.0267 15.0127C86.045 14.9565 85.9462 14.8036 85.8786 14.786C84.5845 14.4532 83.281 14.4653 81.9525 14.7935L81.9504 14.7908Z" fill="white"/>
<path d="M117.639 13.4729C117.311 13.3296 117.023 13.1829 116.723 13.0763C115.891 12.7807 115.046 12.5918 114.161 12.8029C113.359 12.9925 112.91 13.711 113.226 14.4191C113.352 14.6959 113.652 14.9624 113.934 15.0905C114.727 15.4511 115.56 15.7182 116.361 16.0595C116.729 16.2259 117.077 16.4349 117.398 16.6824C118.846 17.7525 118.693 20.3799 117.141 21.416C116.371 21.9296 115.519 22.1137 114.628 22.1317C113.454 22.1553 112.319 21.9587 111.243 21.4444C110.994 21.3254 110.895 21.1842 110.947 20.8838C111.024 20.4332 111.047 19.9715 111.098 19.4566C111.232 19.5182 111.338 19.5638 111.44 19.6144C112.431 20.0989 113.466 20.4249 114.571 20.3397C114.979 20.3086 115.425 20.1895 115.765 19.9667C116.561 19.4448 116.503 18.345 115.653 17.9241C114.964 17.5822 114.216 17.3704 113.5 17.0845C112.811 16.8077 112.123 16.5142 111.65 15.892C110.568 14.4696 111.046 12.2596 112.605 11.4449C113.848 10.7963 115.149 10.8406 116.459 11.159C116.846 11.2532 117.216 11.4255 117.594 11.5619C117.841 11.6512 117.937 11.8083 117.878 12.09C117.786 12.5295 117.724 12.9739 117.639 13.4729Z" fill="white"/>
<path d="M144.375 17.2977L147.2 21.5863C146.525 21.5863 145.946 21.5554 145.373 21.5959C144.91 21.6282 144.643 21.4833 144.415 21.0705C143.872 20.0869 143.256 19.1419 142.692 18.1686C142.535 17.8939 142.364 17.784 142.037 17.7922C141.263 17.8135 141.373 17.8843 141.366 17.1473C141.366 16.8616 141.269 16.5017 141.409 16.3135C141.525 16.1576 141.925 16.2146 142.196 16.1596C142.479 16.1019 142.772 16.0559 143.034 15.9474C143.76 15.6514 144.066 14.9748 143.954 13.992C143.879 13.3073 143.347 12.7567 142.656 12.6485C142.336 12.5941 142.012 12.5642 141.688 12.5592C141.459 12.5551 141.344 12.5064 141.357 12.2522C141.375 11.8985 141.349 11.542 141.371 11.1883C141.377 11.0997 141.493 10.9466 141.564 10.9438C142.751 10.8957 143.912 10.994 144.907 11.7474C146.449 12.915 146.541 15.4069 145.085 16.7173C144.867 16.9145 144.627 17.0917 144.375 17.2977Z" fill="white"/>
<path d="M103.467 18.8332C103.67 18.285 103.84 17.7966 104.039 17.3189C104.072 17.2416 104.235 17.1758 104.34 17.1731C104.897 17.1588 105.454 17.167 106.011 17.167H106.449C106.281 16.6989 106.135 16.285 105.985 15.878C105.798 15.3685 105.619 14.8556 105.413 14.3535C105.299 14.0936 105.299 13.7994 105.413 13.5394C105.684 12.861 105.931 12.171 106.274 11.4668L110.4 21.5551C110.301 21.5738 110.202 21.5869 110.102 21.5944C109.534 21.5944 108.966 21.5876 108.398 21.5999C108.176 21.6053 108.068 21.532 107.995 21.3244C107.748 20.6134 107.461 19.9065 107.216 19.1887C107.125 18.9234 107.007 18.8183 106.704 18.8244C105.65 18.8495 104.596 18.8332 103.467 18.8332Z" fill="white"/>
<path d="M130.667 18.8285C130.87 18.2855 131.035 17.8023 131.234 17.3354C131.27 17.2499 131.443 17.1745 131.554 17.1725C132.225 17.1576 132.896 17.165 133.64 17.165C133.517 16.8128 133.415 16.5094 133.305 16.2094C133.056 15.5308 132.797 14.8521 132.559 14.1734C132.511 14.0368 132.508 13.889 132.55 13.7506C132.817 12.9945 133.108 12.2452 133.466 11.4668C134.837 14.8147 136.208 18.162 137.6 21.5582C137.454 21.5738 137.357 21.5921 137.26 21.5921C136.726 21.5955 136.192 21.5812 135.657 21.5995C135.396 21.6077 135.261 21.5317 135.176 21.2812C134.927 20.5537 134.643 19.8384 134.389 19.1095C134.313 18.893 134.203 18.8169 133.963 18.821C133.011 18.8359 132.059 18.8271 131.104 18.8271L130.667 18.8285Z" fill="white"/>
<path d="M138.675 10.9348C139.347 10.9348 139.978 10.9287 140.608 10.9438C140.671 10.9438 140.749 11.0626 140.785 11.1409C140.813 11.1959 140.792 11.2783 140.792 11.347C140.792 14.6165 140.787 17.8866 140.8 21.1568C140.8 21.505 140.708 21.6218 140.347 21.5971C139.9 21.5722 139.453 21.5722 139.006 21.5971C138.738 21.6094 138.665 21.5181 138.667 21.266C138.679 20.1224 138.672 18.9787 138.672 17.8358V10.9348H138.675Z" fill="white"/>
<path d="M99.7334 21.5928C100.089 20.6825 100.412 19.8581 100.734 19.0336C101.748 16.4381 102.761 13.842 103.771 11.2451C103.86 11.0153 103.973 10.9241 104.213 10.9344C104.649 10.9522 105.086 10.9392 105.6 10.9392C105.495 11.2677 105.414 11.5435 105.318 11.8137C104.202 14.9662 103.087 18.1188 101.971 21.2717C101.886 21.5125 101.774 21.6092 101.514 21.5996C100.946 21.5784 100.377 21.5928 99.7334 21.5928Z" fill="white"/>
<path d="M132.8 10.9458C132.606 11.4993 132.443 11.9684 132.276 12.4368C131.229 15.3841 130.183 18.3311 129.137 21.278C129.059 21.4981 128.967 21.6099 128.708 21.5996C128.137 21.5756 127.564 21.5921 126.933 21.5921C126.96 21.4739 126.992 21.3572 127.03 21.2423C128.326 17.9283 129.622 14.6134 130.919 11.2976C131.018 11.0425 131.143 10.9163 131.436 10.9355C131.859 10.9664 132.286 10.9458 132.8 10.9458Z" fill="white"/>
<path d="M124.267 13.5996V21.5978C123.783 21.5978 123.3 21.6018 122.819 21.5978C122.032 21.5891 122.138 21.7058 122.138 20.9228C122.134 18.6226 122.134 16.3223 122.138 14.0217V13.6003L124.267 13.5996Z" fill="white"/>
<path d="M127.998 10.9553C127.998 11.4427 128.007 11.9035 127.986 12.3631C127.986 12.4199 127.823 12.5151 127.733 12.5182C127.215 12.533 126.696 12.5256 126.18 12.5256C123.913 12.5256 121.646 12.5194 119.38 12.5336C119.027 12.5336 118.908 12.4453 118.938 12.1327C118.96 11.8351 118.96 11.5365 118.938 11.2389C118.925 11.0115 119.015 10.93 119.273 10.9337C120.078 10.9448 120.884 10.9374 121.691 10.9374H127.594C127.717 10.9393 127.84 10.9485 127.998 10.9553Z" fill="white"/>
</svg>
