<svg width="208" height="42" viewBox="0 0 208 42" fill="none" xmlns="http://www.w3.org/2000/svg">
<path d="M33.3802 32.6716C27.9744 35.4359 21.6203 34.3298 17.4454 30.3802L14.5068 31.882C19.5824 37.3831 27.8625 39.0819 34.8495 35.5095C41.8364 31.9372 45.3326 24.2183 43.8817 16.8657L40.9028 18.3896C41.6328 24.1006 38.7896 29.9072 33.3839 32.6716H33.3802Z" fill="url(#paint0_linear_807_489)"/>
<path d="M13.9886 25.1372C13.6015 24.1175 13.3447 23.0777 13.2035 22.0305C12.4367 16.2956 15.2818 10.4466 20.7114 7.67122C26.141 4.89582 32.5281 6.02401 36.703 10.016C37.4642 10.7448 38.1521 11.5656 38.7464 12.4785L49.4644 6.99946L50 3.18971L39.6599 8.50495C34.5843 3.00383 26.3042 1.30509 19.3173 4.87741C12.3322 8.4479 8.8341 16.1686 10.2851 23.5212L0 28.7813L3.34948 30.5757L13.9867 25.1372H13.9886Z" fill="url(#paint1_linear_807_489)"/>
<path d="M48.6111 12.6962L49.1779 8.89935L5.0459 31.4597L8.46875 33.2173L48.6111 12.6962Z" fill="url(#paint2_linear_807_489)"/>
<path d="M57.9063 11.916H60.9467V26.2492H68.2098V29H57.9063V11.916ZM69.7192 17.4176H72.6148V29H69.7192V17.4176ZM69.309 13.4844C69.309 13.0179 69.4779 12.6157 69.8157 12.2779C70.1697 11.924 70.612 11.747 71.1429 11.747C71.6738 11.747 72.1161 11.916 72.47 12.2538C72.84 12.5755 73.025 12.9857 73.025 13.4844C73.025 13.9831 72.84 14.4013 72.47 14.7392C72.1161 15.0609 71.6738 15.2218 71.1429 15.2218C70.612 15.2218 70.1697 15.0529 69.8157 14.715C69.4779 14.3611 69.309 13.9509 69.309 13.4844ZM75.4565 10.7577H78.3521V18.8895H78.4245C78.5693 18.6965 78.7543 18.5034 78.9795 18.3104C79.2047 18.1013 79.4782 17.9082 79.7999 17.7313C80.1216 17.5543 80.4916 17.4096 80.9099 17.297C81.3281 17.1843 81.8107 17.128 82.3577 17.128C83.1781 17.128 83.9342 17.2889 84.6259 17.6106C85.3176 17.9163 85.9048 18.3426 86.3874 18.8895C86.8861 19.4365 87.2722 20.0799 87.5456 20.8199C87.8191 21.5599 87.9558 22.3562 87.9558 23.2088C87.9558 24.0614 87.8272 24.8577 87.5698 25.5977C87.3124 26.3377 86.9343 26.9811 86.4357 27.5281C85.937 28.075 85.3337 28.5094 84.6259 28.8311C83.9181 29.1367 83.1218 29.2896 82.237 29.2896C81.4166 29.2896 80.6525 29.1287 79.9447 28.807C79.2369 28.4852 78.6738 27.9705 78.2556 27.2626H78.2073V29H75.4565V10.7577ZM85.0602 23.2088C85.0602 22.7584 84.9798 22.324 84.8189 21.9058C84.6742 21.4875 84.449 21.1175 84.1433 20.7958C83.8537 20.4741 83.4998 20.2167 83.0816 20.0236C82.6633 19.8306 82.1888 19.7341 81.6579 19.7341C81.1271 19.7341 80.6525 19.8306 80.2342 20.0236C79.816 20.2167 79.454 20.4741 79.1484 20.7958C78.8588 21.1175 78.6336 21.4875 78.4728 21.9058C78.328 22.324 78.2556 22.7584 78.2556 23.2088C78.2556 23.6592 78.328 24.0936 78.4728 24.5118C78.6336 24.9301 78.8588 25.3001 79.1484 25.6218C79.454 25.9435 79.816 26.2009 80.2342 26.394C80.6525 26.587 81.1271 26.6835 81.6579 26.6835C82.1888 26.6835 82.6633 26.587 83.0816 26.394C83.4998 26.2009 83.8537 25.9435 84.1433 25.6218C84.449 25.3001 84.6742 24.9301 84.8189 24.5118C84.9798 24.0936 85.0602 23.6592 85.0602 23.2088ZM90.173 17.4176H93.0686V19.2515H93.1168C93.4386 18.5758 93.897 18.053 94.4922 17.683C95.0875 17.313 95.7711 17.128 96.5433 17.128C96.7203 17.128 96.8892 17.1441 97.05 17.1763C97.227 17.2085 97.4039 17.2487 97.5809 17.297V20.096C97.3396 20.0317 97.0983 19.9834 96.857 19.9512C96.6318 19.903 96.4066 19.8789 96.1813 19.8789C95.5057 19.8789 94.9588 20.0076 94.5405 20.2649C94.1383 20.5062 93.8247 20.7878 93.5994 21.1095C93.3903 21.4312 93.2455 21.753 93.1651 22.0747C93.1008 22.3964 93.0686 22.6377 93.0686 22.7986V29H90.173V17.4176ZM106.308 27.4074H106.236C105.817 28.067 105.287 28.5496 104.643 28.8552C104 29.1448 103.292 29.2896 102.52 29.2896C101.989 29.2896 101.466 29.2172 100.951 29.0724C100.452 28.9276 100.002 28.7104 99.5999 28.4209C99.2138 28.1313 98.9001 27.7694 98.6588 27.335C98.4175 26.9007 98.2969 26.394 98.2969 25.8148C98.2969 25.1875 98.4095 24.6566 98.6347 24.2223C98.8599 23.7718 99.1575 23.4018 99.5275 23.1123C99.9136 22.8066 100.356 22.5653 100.855 22.3884C101.353 22.2114 101.868 22.0827 102.399 22.0023C102.946 21.9058 103.493 21.8495 104.04 21.8334C104.587 21.8012 105.102 21.7851 105.584 21.7851H106.308V21.4714C106.308 20.7475 106.059 20.2086 105.56 19.8547C105.061 19.4847 104.426 19.2997 103.654 19.2997C103.042 19.2997 102.471 19.4123 101.941 19.6376C101.41 19.8467 100.951 20.1362 100.565 20.5062L99.0449 18.986C99.6884 18.3265 100.436 17.8519 101.289 17.5624C102.158 17.2728 103.05 17.128 103.967 17.128C104.788 17.128 105.48 17.2246 106.043 17.4176C106.606 17.5946 107.072 17.8278 107.442 18.1174C107.812 18.4069 108.094 18.7447 108.287 19.1308C108.496 19.5008 108.641 19.8789 108.721 20.2649C108.818 20.651 108.874 21.0291 108.89 21.399C108.906 21.753 108.914 22.0666 108.914 22.3401V29H106.308V27.4074ZM106.139 23.8121H105.536C105.134 23.8121 104.683 23.8281 104.185 23.8603C103.686 23.8925 103.211 23.9729 102.761 24.1016C102.327 24.2142 101.957 24.3912 101.651 24.6325C101.345 24.8577 101.192 25.1794 101.192 25.5977C101.192 25.8711 101.249 26.1044 101.361 26.2974C101.49 26.4744 101.651 26.6272 101.844 26.7559C102.037 26.8846 102.254 26.9811 102.495 27.0455C102.737 27.0937 102.978 27.1179 103.219 27.1179C104.217 27.1179 104.949 26.8846 105.415 26.4181C105.898 25.9355 106.139 25.284 106.139 24.4636V23.8121ZM118.47 11.916H129.497V14.6668H121.51V19.155H129.039V21.9058H121.51V29H118.47V11.916ZM131.626 17.4176H134.521V29H131.626V17.4176ZM131.216 13.4844C131.216 13.0179 131.385 12.6157 131.722 12.2779C132.076 11.924 132.519 11.747 133.05 11.747C133.58 11.747 134.023 11.916 134.377 12.2538C134.747 12.5755 134.932 12.9857 134.932 13.4844C134.932 13.9831 134.747 14.4013 134.377 14.7392C134.023 15.0609 133.58 15.2218 133.05 15.2218C132.519 15.2218 132.076 15.0529 131.722 14.715C131.385 14.3611 131.216 13.9509 131.216 13.4844ZM137.363 17.4176H140.114V19.2756H140.162C140.436 18.6965 140.854 18.1978 141.417 17.7795C141.98 17.3452 142.744 17.128 143.709 17.128C144.482 17.128 145.133 17.2567 145.664 17.5141C146.211 17.7715 146.653 18.1093 146.991 18.5276C147.329 18.9458 147.57 19.4284 147.715 19.9754C147.86 20.5223 147.932 21.0934 147.932 21.6886V29H145.036V23.1364C145.036 22.8147 145.02 22.4608 144.988 22.0747C144.956 21.6725 144.868 21.3025 144.723 20.9647C144.594 20.6108 144.385 20.3212 144.095 20.096C143.806 19.8547 143.412 19.7341 142.913 19.7341C142.43 19.7341 142.02 19.8145 141.682 19.9754C141.361 20.1362 141.087 20.3534 140.862 20.6269C140.653 20.9004 140.5 21.2141 140.404 21.568C140.307 21.9219 140.259 22.2919 140.259 22.6779V29H137.363V17.4176ZM157.975 27.4074H157.903C157.485 28.067 156.954 28.5496 156.31 28.8552C155.667 29.1448 154.959 29.2896 154.187 29.2896C153.656 29.2896 153.133 29.2172 152.619 29.0724C152.12 28.9276 151.669 28.7104 151.267 28.4209C150.881 28.1313 150.568 27.7694 150.326 27.335C150.085 26.9007 149.964 26.394 149.964 25.8148C149.964 25.1875 150.077 24.6566 150.302 24.2223C150.527 23.7718 150.825 23.4018 151.195 23.1123C151.581 22.8066 152.023 22.5653 152.522 22.3884C153.021 22.2114 153.536 22.0827 154.066 22.0023C154.613 21.9058 155.16 21.8495 155.707 21.8334C156.254 21.8012 156.769 21.7851 157.252 21.7851H157.975V21.4714C157.975 20.7475 157.726 20.2086 157.227 19.8547C156.729 19.4847 156.093 19.2997 155.321 19.2997C154.71 19.2997 154.139 19.4123 153.608 19.6376C153.077 19.8467 152.619 20.1362 152.233 20.5062L150.712 18.986C151.356 18.3265 152.104 17.8519 152.956 17.5624C153.825 17.2728 154.718 17.128 155.635 17.128C156.455 17.128 157.147 17.2246 157.71 17.4176C158.273 17.5946 158.74 17.8278 159.11 18.1174C159.48 18.4069 159.761 18.7447 159.954 19.1308C160.163 19.5008 160.308 19.8789 160.388 20.2649C160.485 20.651 160.541 21.0291 160.557 21.399C160.573 21.753 160.581 22.0666 160.581 22.3401V29H157.975V27.4074ZM157.807 23.8121H157.203C156.801 23.8121 156.351 23.8281 155.852 23.8603C155.353 23.8925 154.879 23.9729 154.428 24.1016C153.994 24.2142 153.624 24.3912 153.318 24.6325C153.013 24.8577 152.86 25.1794 152.86 25.5977C152.86 25.8711 152.916 26.1044 153.029 26.2974C153.157 26.4744 153.318 26.6272 153.511 26.7559C153.704 26.8846 153.922 26.9811 154.163 27.0455C154.404 27.0937 154.646 27.1179 154.887 27.1179C155.884 27.1179 156.616 26.8846 157.083 26.4181C157.565 25.9355 157.807 25.284 157.807 24.4636V23.8121ZM163.214 17.4176H165.965V19.2756H166.013C166.287 18.6965 166.705 18.1978 167.268 17.7795C167.831 17.3452 168.595 17.128 169.56 17.128C170.333 17.128 170.984 17.2567 171.515 17.5141C172.062 17.7715 172.504 18.1093 172.842 18.5276C173.18 18.9458 173.421 19.4284 173.566 19.9754C173.711 20.5223 173.783 21.0934 173.783 21.6886V29H170.888V23.1364C170.888 22.8147 170.872 22.4608 170.839 22.0747C170.807 21.6725 170.719 21.3025 170.574 20.9647C170.445 20.6108 170.236 20.3212 169.947 20.096C169.657 19.8547 169.263 19.7341 168.764 19.7341C168.282 19.7341 167.871 19.8145 167.534 19.9754C167.212 20.1362 166.938 20.3534 166.713 20.6269C166.504 20.9004 166.351 21.2141 166.255 21.568C166.158 21.9219 166.11 22.2919 166.11 22.6779V29H163.214V17.4176ZM184.502 20.8923C184.164 20.5384 183.811 20.2569 183.441 20.0478C183.071 19.8386 182.692 19.7341 182.306 19.7341C181.776 19.7341 181.301 19.8306 180.883 20.0236C180.464 20.2167 180.103 20.4741 179.797 20.7958C179.507 21.1175 179.282 21.4875 179.121 21.9058C178.976 22.324 178.904 22.7584 178.904 23.2088C178.904 23.6592 178.976 24.0936 179.121 24.5118C179.282 24.9301 179.507 25.3001 179.797 25.6218C180.103 25.9435 180.464 26.2009 180.883 26.394C181.301 26.587 181.776 26.6835 182.306 26.6835C182.757 26.6835 183.175 26.595 183.561 26.4181C183.947 26.225 184.277 25.9516 184.55 25.5977L186.481 27.6728C186.191 27.9624 185.854 28.2118 185.467 28.4209C185.097 28.63 184.719 28.7989 184.333 28.9276C183.947 29.0563 183.577 29.1448 183.223 29.193C182.869 29.2574 182.564 29.2896 182.306 29.2896C181.438 29.2896 180.617 29.1448 179.845 28.8552C179.073 28.5657 178.405 28.1554 177.842 27.6246C177.279 27.0937 176.829 26.4583 176.491 25.7183C176.169 24.9622 176.008 24.1257 176.008 23.2088C176.008 22.2919 176.169 21.4634 176.491 20.7234C176.829 19.9673 177.279 19.3239 177.842 18.793C178.405 18.2621 179.073 17.8519 179.845 17.5624C180.617 17.2728 181.438 17.128 182.306 17.128C183.046 17.128 183.786 17.2728 184.526 17.5624C185.282 17.8359 185.942 18.2782 186.505 18.8895L184.502 20.8923ZM190.062 24.2223C190.159 25.0909 190.497 25.7666 191.076 26.2492C191.655 26.7318 192.355 26.9731 193.175 26.9731C193.899 26.9731 194.502 26.8283 194.985 26.5387C195.484 26.2331 195.918 25.8551 196.288 25.4046L198.363 26.9731C197.687 27.8096 196.931 28.4048 196.095 28.7587C195.258 29.1126 194.382 29.2896 193.465 29.2896C192.596 29.2896 191.776 29.1448 191.003 28.8552C190.231 28.5657 189.564 28.1554 189.001 27.6246C188.438 27.0937 187.987 26.4583 187.649 25.7183C187.328 24.9622 187.167 24.1257 187.167 23.2088C187.167 22.2919 187.328 21.4634 187.649 20.7234C187.987 19.9673 188.438 19.3239 189.001 18.793C189.564 18.2621 190.231 17.8519 191.003 17.5624C191.776 17.2728 192.596 17.128 193.465 17.128C194.269 17.128 195.001 17.2728 195.66 17.5624C196.336 17.8359 196.907 18.238 197.374 18.7689C197.856 19.2997 198.226 19.9593 198.484 20.7475C198.757 21.5197 198.894 22.4125 198.894 23.426V24.2223H190.062ZM195.998 22.0506C195.982 21.198 195.717 20.5304 195.202 20.0478C194.687 19.5491 193.971 19.2997 193.054 19.2997C192.186 19.2997 191.494 19.5491 190.979 20.0478C190.481 20.5465 190.175 21.2141 190.062 22.0506H195.998Z" fill="white"/>
<defs>
<linearGradient id="paint0_linear_807_489" x1="7.72008" y1="34.8652" x2="52.7468" y2="14.4845" gradientUnits="userSpaceOnUse">
<stop stop-color="white" stop-opacity="0"/>
<stop offset="0.321587" stop-color="white"/>
<stop offset="0.696602" stop-color="white" stop-opacity="0.713999"/>
<stop offset="1" stop-color="white" stop-opacity="0"/>
</linearGradient>
<linearGradient id="paint1_linear_807_489" x1="-11.426" y1="27.1871" x2="57.6848" y2="-12.0055" gradientUnits="userSpaceOnUse">
<stop stop-color="white" stop-opacity="0"/>
<stop offset="0.321587" stop-color="white"/>
<stop offset="0.696602" stop-color="white" stop-opacity="0.713999"/>
<stop offset="1" stop-color="white" stop-opacity="0"/>
</linearGradient>
<linearGradient id="paint2_linear_807_489" x1="-5.03913" y1="30.229" x2="55.9346" y2="-4.37961" gradientUnits="userSpaceOnUse">
<stop stop-color="white" stop-opacity="0"/>
<stop offset="0.321587" stop-color="white"/>
<stop offset="0.696602" stop-color="white" stop-opacity="0.713999"/>
<stop offset="1" stop-color="white" stop-opacity="0"/>
</linearGradient>
</defs>
</svg>
