<svg width="209" height="44" viewBox="0 0 209 44" fill="none" xmlns="http://www.w3.org/2000/svg">
<g filter="url(#filter0_d_757_171)">
<path d="M38.3589 30.4397C32.7946 33.2756 26.2542 32.1409 21.9569 28.089L18.9321 29.6297C24.1565 35.2733 32.6795 37.016 39.8713 33.3512C47.0631 29.6863 50.6618 21.7676 49.1683 14.2246L46.102 15.788C46.8535 21.6468 43.9269 27.6038 38.3627 30.4397H38.3589Z" fill="url(#paint0_linear_757_171)"/>
<path d="M18.3987 22.7103C18.0003 21.6643 17.736 20.5975 17.5906 19.5232C16.8014 13.6399 19.7298 7.63944 25.3186 4.79217C30.9075 1.9449 37.4818 3.10231 41.7792 7.19762C42.5628 7.94531 43.2708 8.78741 43.8825 9.72391L54.9148 4.10301L55.4661 0.194625L44.8228 5.64749C39.5984 0.00392532 31.0755 -1.7388 23.8837 1.92602C16.6938 5.58895 13.0931 13.5096 14.5866 21.0526L4 26.4488L7.44769 28.2897L18.3968 22.7103H18.3987Z" fill="url(#paint1_linear_757_171)"/>
<path d="M54.0364 9.9479L54.6199 6.05273L9.19385 29.1972L12.7171 31.0003L54.0364 9.9479Z" fill="url(#paint2_linear_757_171)"/>
<path d="M62.9053 8.92339H65.9444V23.2507H73.2046V26.0004H62.9053V8.92339Z" fill="white"/>
<path d="M74.7134 14.4228H77.6078V26.0004H74.7134V14.4228ZM74.3033 10.4912C74.3033 10.0249 74.4722 9.62287 74.8099 9.28519C75.1636 8.93143 75.6058 8.75455 76.1365 8.75455C76.6671 8.75455 77.1093 8.92339 77.4631 9.26107C77.8329 9.58267 78.0178 9.99272 78.0178 10.4912C78.0178 10.9897 77.8329 11.4078 77.4631 11.7454C77.1093 12.067 76.6671 12.2278 76.1365 12.2278C75.6058 12.2278 75.1636 12.059 74.8099 11.7213C74.4722 11.3676 74.3033 10.9575 74.3033 10.4912Z" fill="white"/>
<path d="M80.4483 7.76562H83.3427V15.8941H83.4151C83.5598 15.7011 83.7447 15.5082 83.9699 15.3152C84.195 15.1062 84.4683 14.9132 84.7899 14.7363C85.1115 14.5595 85.4814 14.4147 85.8995 14.3022C86.3175 14.1896 86.7999 14.1333 87.3467 14.1333C88.1668 14.1333 88.9225 14.2941 89.614 14.6157C90.3054 14.9213 90.8923 15.3474 91.3747 15.8941C91.8732 16.4408 92.2591 17.084 92.5325 17.8237C92.8059 18.5634 92.9425 19.3594 92.9425 20.2116C92.9425 21.0638 92.8139 21.8598 92.5566 22.5995C92.2993 23.3392 91.9214 23.9824 91.423 24.5291C90.9245 25.0758 90.3215 25.51 89.614 25.8316C88.9064 26.1371 88.1105 26.2899 87.2261 26.2899C86.406 26.2899 85.6422 26.1291 84.9347 25.8075C84.2271 25.4859 83.6643 24.9713 83.2463 24.2638H83.198V26.0004H80.4483V7.76562ZM90.0481 20.2116C90.0481 19.7614 89.9677 19.3272 89.8069 18.9091C89.6622 18.491 89.4371 18.1212 89.1316 17.7996C88.8421 17.478 88.4884 17.2207 88.0703 17.0277C87.6522 16.8348 87.1778 16.7383 86.6472 16.7383C86.1165 16.7383 85.6422 16.8348 85.2241 17.0277C84.806 17.2207 84.4442 17.478 84.1387 17.7996C83.8493 18.1212 83.6241 18.491 83.4633 18.9091C83.3186 19.3272 83.2463 19.7614 83.2463 20.2116C83.2463 20.6618 83.3186 21.096 83.4633 21.5141C83.6241 21.9322 83.8493 22.302 84.1387 22.6236C84.4442 22.9452 84.806 23.2025 85.2241 23.3955C85.6422 23.5884 86.1165 23.6849 86.6472 23.6849C87.1778 23.6849 87.6522 23.5884 88.0703 23.3955C88.4884 23.2025 88.8421 22.9452 89.1316 22.6236C89.4371 22.302 89.6622 21.9322 89.8069 21.5141C89.9677 21.096 90.0481 20.6618 90.0481 20.2116Z" fill="white"/>
<path d="M95.1588 14.4228H98.0532V16.2559H98.1014C98.423 15.5805 98.8813 15.0579 99.4763 14.6881C100.071 14.3183 100.755 14.1333 101.526 14.1333C101.703 14.1333 101.872 14.1494 102.033 14.1816C102.21 14.2137 102.387 14.2539 102.564 14.3022V17.1001C102.322 17.0358 102.081 16.9875 101.84 16.9554C101.615 16.9071 101.39 16.883 101.165 16.883C100.489 16.883 99.9426 17.0117 99.5245 17.2689C99.1225 17.5102 98.8089 17.7916 98.5838 18.1132C98.3748 18.4348 98.2301 18.7564 98.1497 19.078C98.0853 19.3996 98.0532 19.6408 98.0532 19.8016V26.0004H95.1588V14.4228Z" fill="white"/>
<path d="M111.287 24.4085H111.215C110.797 25.0678 110.266 25.5502 109.623 25.8557C108.98 26.1452 108.272 26.2899 107.5 26.2899C106.97 26.2899 106.447 26.2175 105.933 26.0728C105.434 25.9281 104.984 25.711 104.582 25.4215C104.196 25.1321 103.882 24.7703 103.641 24.3361C103.4 23.902 103.279 23.3955 103.279 22.8166C103.279 22.1895 103.392 21.6588 103.617 21.2246C103.842 20.7744 104.14 20.4046 104.509 20.1151C104.895 19.8096 105.338 19.5684 105.836 19.3915C106.335 19.2146 106.849 19.086 107.38 19.0056C107.926 18.9091 108.473 18.8528 109.02 18.8368C109.567 18.8046 110.081 18.7885 110.564 18.7885H111.287V18.475C111.287 17.7514 111.038 17.2127 110.539 16.8589C110.041 16.4891 109.406 16.3041 108.634 16.3041C108.023 16.3041 107.452 16.4167 106.921 16.6418C106.391 16.8509 105.933 17.1403 105.547 17.5101L104.027 15.9906C104.67 15.3313 105.418 14.8569 106.27 14.5675C107.139 14.2781 108.031 14.1333 108.948 14.1333C109.768 14.1333 110.459 14.2298 111.022 14.4228C111.585 14.5997 112.051 14.8328 112.421 15.1223C112.791 15.4117 113.072 15.7494 113.265 16.1353C113.474 16.5051 113.619 16.883 113.699 17.2689C113.796 17.6549 113.852 18.0328 113.868 18.4026C113.884 18.7564 113.892 19.0699 113.892 19.3433V26.0004H111.287V24.4085ZM111.118 20.8146H110.515C110.113 20.8146 109.663 20.8307 109.165 20.8628C108.666 20.895 108.192 20.9754 107.742 21.104C107.307 21.2166 106.938 21.3935 106.632 21.6347C106.326 21.8598 106.174 22.1814 106.174 22.5995C106.174 22.8729 106.23 23.106 106.343 23.299C106.471 23.4759 106.632 23.6286 106.825 23.7573C107.018 23.8859 107.235 23.9824 107.476 24.0467C107.717 24.0949 107.959 24.1191 108.2 24.1191C109.197 24.1191 109.928 23.8859 110.395 23.4196C110.877 22.9372 111.118 22.2859 111.118 21.4658V20.8146Z" fill="white"/>
<path d="M123.444 8.92339H134.467V11.6731H126.483V16.1594H134.009V18.9091H126.483V26.0004H123.444V8.92339Z" fill="white"/>
<path d="M136.739 8.92339H139.779V26.0004H136.739V8.92339Z" fill="white"/>
<path d="M142.777 14.4228H145.527V16.28H145.575C145.848 15.7011 146.267 15.2027 146.829 14.7846C147.392 14.3504 148.156 14.1333 149.121 14.1333C149.893 14.1333 150.544 14.262 151.074 14.5193C151.621 14.7765 152.063 15.1142 152.401 15.5323C152.739 15.9504 152.98 16.4328 153.125 16.9795C153.269 17.5262 153.342 18.0971 153.342 18.692V26.0004H150.447V20.1392C150.447 19.8176 150.431 19.4639 150.399 19.078C150.367 18.676 150.278 18.3061 150.134 17.9684C150.005 17.6147 149.796 17.3252 149.507 17.1001C149.217 16.8589 148.823 16.7383 148.325 16.7383C147.842 16.7383 147.432 16.8187 147.095 16.9795C146.773 17.1403 146.5 17.3574 146.275 17.6308C146.066 17.9041 145.913 18.2177 145.816 18.5714C145.72 18.9252 145.672 19.295 145.672 19.681V26.0004H142.777V14.4228Z" fill="white"/>
<path d="M163.381 24.4085H163.309C162.891 25.0678 162.36 25.5502 161.717 25.8557C161.073 26.1452 160.366 26.2899 159.594 26.2899C159.063 26.2899 158.541 26.2175 158.026 26.0728C157.528 25.9281 157.078 25.711 156.676 25.4215C156.29 25.1321 155.976 24.7703 155.735 24.3361C155.494 23.902 155.373 23.3955 155.373 22.8166C155.373 22.1895 155.486 21.6588 155.711 21.2246C155.936 20.7744 156.233 20.4046 156.603 20.1151C156.989 19.8096 157.431 19.5684 157.93 19.3915C158.428 19.2146 158.943 19.086 159.474 19.0056C160.02 18.9091 160.567 18.8528 161.114 18.8368C161.66 18.8046 162.175 18.7885 162.657 18.7885H163.381V18.475C163.381 17.7514 163.132 17.2127 162.633 16.8589C162.135 16.4891 161.5 16.3041 160.728 16.3041C160.117 16.3041 159.546 16.4167 159.015 16.6418C158.485 16.8509 158.026 17.1403 157.64 17.5101L156.121 15.9906C156.764 15.3313 157.512 14.8569 158.364 14.5675C159.232 14.2781 160.125 14.1333 161.041 14.1333C161.861 14.1333 162.553 14.2298 163.116 14.4228C163.678 14.5997 164.145 14.8328 164.515 15.1223C164.884 15.4117 165.166 15.7494 165.359 16.1353C165.568 16.5051 165.713 16.883 165.793 17.2689C165.889 17.6549 165.946 18.0328 165.962 18.4026C165.978 18.7564 165.986 19.0699 165.986 19.3433V26.0004H163.381V24.4085ZM163.212 20.8146H162.609C162.207 20.8146 161.757 20.8307 161.258 20.8628C160.76 20.895 160.286 20.9754 159.835 21.104C159.401 21.2166 159.031 21.3935 158.726 21.6347C158.42 21.8598 158.268 22.1814 158.268 22.5995C158.268 22.8729 158.324 23.106 158.436 23.299C158.565 23.4759 158.726 23.6286 158.919 23.7573C159.112 23.8859 159.329 23.9824 159.57 24.0467C159.811 24.0949 160.052 24.1191 160.294 24.1191C161.291 24.1191 162.022 23.8859 162.489 23.4196C162.971 22.9372 163.212 22.2859 163.212 21.4658V20.8146Z" fill="white"/>
<path d="M168.618 14.4228H171.367V16.28H171.416C171.689 15.7011 172.107 15.2027 172.67 14.7846C173.233 14.3504 173.996 14.1333 174.961 14.1333C175.733 14.1333 176.384 14.262 176.915 14.5193C177.462 14.7765 177.904 15.1142 178.242 15.5323C178.579 15.9504 178.82 16.4328 178.965 16.9795C179.11 17.5262 179.182 18.0971 179.182 18.692V26.0004H176.288V20.1392C176.288 19.8176 176.272 19.4639 176.24 19.078C176.207 18.676 176.119 18.3061 175.974 17.9684C175.846 17.6147 175.637 17.3252 175.347 17.1001C175.058 16.8589 174.664 16.7383 174.165 16.7383C173.683 16.7383 173.273 16.8187 172.935 16.9795C172.614 17.1403 172.34 17.3574 172.115 17.6308C171.906 17.9041 171.753 18.2177 171.657 18.5714C171.56 18.9252 171.512 19.295 171.512 19.681V26.0004H168.618V14.4228Z" fill="white"/>
<path d="M189.897 17.8961C189.559 17.5423 189.205 17.2609 188.836 17.0519C188.466 16.8428 188.088 16.7383 187.702 16.7383C187.171 16.7383 186.697 16.8348 186.279 17.0277C185.861 17.2207 185.499 17.478 185.193 17.7996C184.904 18.1212 184.679 18.491 184.518 18.9091C184.373 19.3272 184.301 19.7614 184.301 20.2116C184.301 20.6618 184.373 21.096 184.518 21.5141C184.679 21.9322 184.904 22.302 185.193 22.6236C185.499 22.9452 185.861 23.2025 186.279 23.3955C186.697 23.5884 187.171 23.6849 187.702 23.6849C188.152 23.6849 188.57 23.5965 188.956 23.4196C189.342 23.2266 189.672 22.9533 189.945 22.5995L191.875 24.6738C191.585 24.9633 191.248 25.2125 190.862 25.4215C190.492 25.6306 190.114 25.7994 189.728 25.9281C189.342 26.0567 188.972 26.1451 188.619 26.1934C188.265 26.2577 187.959 26.2899 187.702 26.2899C186.834 26.2899 186.014 26.1452 185.242 25.8557C184.47 25.5663 183.803 25.1562 183.24 24.6256C182.677 24.0949 182.227 23.4598 181.889 22.7201C181.567 21.9643 181.407 21.1282 181.407 20.2116C181.407 19.295 181.567 18.4669 181.889 17.7272C182.227 16.9715 182.677 16.3283 183.24 15.7976C183.803 15.267 184.47 14.8569 185.242 14.5675C186.014 14.2781 186.834 14.1333 187.702 14.1333C188.442 14.1333 189.181 14.2781 189.921 14.5675C190.677 14.8409 191.336 15.2831 191.899 15.8941L189.897 17.8961Z" fill="white"/>
<path d="M195.455 21.2246C195.551 22.093 195.889 22.7683 196.468 23.2507C197.047 23.7331 197.746 23.9743 198.566 23.9743C199.29 23.9743 199.893 23.8296 200.375 23.5402C200.874 23.2347 201.308 22.8568 201.678 22.4065L203.752 23.9743C203.077 24.8105 202.321 25.4055 201.485 25.7592C200.649 26.113 199.772 26.2899 198.856 26.2899C197.987 26.2899 197.167 26.1452 196.395 25.8557C195.624 25.5663 194.956 25.1562 194.393 24.6256C193.831 24.0949 193.38 23.4598 193.043 22.7201C192.721 21.9643 192.56 21.1282 192.56 20.2116C192.56 19.295 192.721 18.4669 193.043 17.7272C193.38 16.9715 193.831 16.3283 194.393 15.7976C194.956 15.267 195.624 14.8569 196.395 14.5675C197.167 14.2781 197.987 14.1333 198.856 14.1333C199.66 14.1333 200.391 14.2781 201.051 14.5675C201.726 14.8409 202.297 15.2429 202.763 15.7735C203.245 16.3041 203.615 16.9634 203.873 17.7514C204.146 18.5232 204.283 19.4156 204.283 20.4287V21.2246H195.455ZM201.388 19.0538C201.372 18.2016 201.107 17.5343 200.592 17.0519C200.078 16.5534 199.362 16.3041 198.446 16.3041C197.577 16.3041 196.886 16.5534 196.371 17.0519C195.873 17.5504 195.567 18.2177 195.455 19.0538H201.388Z" fill="white"/>
</g>
<defs>
<filter id="filter0_d_757_171" x="0" y="0" width="208.283" height="43.2773" filterUnits="userSpaceOnUse" color-interpolation-filters="sRGB">
<feFlood flood-opacity="0" result="BackgroundImageFix"/>
<feColorMatrix in="SourceAlpha" type="matrix" values="0 0 0 0 0 0 0 0 0 0 0 0 0 0 0 0 0 0 127 0" result="hardAlpha"/>
<feOffset dy="4"/>
<feGaussianBlur stdDeviation="2"/>
<feComposite in2="hardAlpha" operator="out"/>
<feColorMatrix type="matrix" values="0 0 0 0 0 0 0 0 0 0 0 0 0 0 0 0 0 0 0.25 0"/>
<feBlend mode="normal" in2="BackgroundImageFix" result="effect1_dropShadow_757_171"/>
<feBlend mode="normal" in="SourceGraphic" in2="effect1_dropShadow_757_171" result="shape"/>
</filter>
<linearGradient id="paint0_linear_757_171" x1="11.9464" y1="32.6901" x2="58.2407" y2="11.6656" gradientUnits="userSpaceOnUse">
<stop stop-color="white" stop-opacity="0"/>
<stop offset="0.321587" stop-color="white"/>
<stop offset="0.696602" stop-color="white" stop-opacity="0.713999"/>
<stop offset="1" stop-color="white" stop-opacity="0"/>
</linearGradient>
<linearGradient id="paint1_linear_757_171" x1="-7.76101" y1="24.8133" x2="63.2605" y2="-15.5974" gradientUnits="userSpaceOnUse">
<stop stop-color="white" stop-opacity="0"/>
<stop offset="0.321587" stop-color="white"/>
<stop offset="0.696602" stop-color="white" stop-opacity="0.713999"/>
<stop offset="1" stop-color="white" stop-opacity="0"/>
</linearGradient>
<linearGradient id="paint2_linear_757_171" x1="-1.18689" y1="27.9346" x2="61.4725" y2="-7.7496" gradientUnits="userSpaceOnUse">
<stop stop-color="white" stop-opacity="0"/>
<stop offset="0.321587" stop-color="white"/>
<stop offset="0.696602" stop-color="white" stop-opacity="0.713999"/>
<stop offset="1" stop-color="white" stop-opacity="0"/>
</linearGradient>
</defs>
</svg>
